<?xml version="1.0" encoding="UTF-8" standalone="no"?>
<!-- Generator: Adobe Illustrator 21.0.2, SVG Export Plug-In . SVG Version: 6.00 Build 0)  -->
<svg id="Layer_1" style="enable-background:new 0 0 48 48" xmlns="http://www.w3.org/2000/svg" xml:space="preserve" viewBox="0 0 48 48" height="48px" width="48px" version="1.1" y="0px" x="0px" xmlns:xlink="http://www.w3.org/1999/xlink">
<linearGradient id="SVGID_1_" y2="618.15" gradientUnits="userSpaceOnUse" x2="24" gradientTransform="matrix(1 0 0 -1 0 662)" y1="658" x1="24">
	<stop stop-color="#42BCE8" offset="0"/>
	<stop stop-color="#23A7DC" offset="1"/>
</linearGradient>
<circle cx="24" r="20" cy="24" fill="url(#SVGID_1_)"/>
<path d="m34.176 14.811l-3.817 19.492s-0.534 1.352-2.002 0.703l-8.809-6.84-3.203-1.568-5.392-1.838s-0.828-0.297-0.908-0.946 0.934-1 0.934-1l21.436-8.516c-0.001-0.001 1.761-0.785 1.761 0.513z" fill="#fff"/>
<path d="m18.87 34.083s-0.257-0.024-0.578-1.052c-0.32-1.027-1.949-6.434-1.949-6.434l12.947-8.327s0.747-0.46 0.721 0c0 0 0.133 0.081-0.267 0.46s-10.171 9.273-10.171 9.273" fill="#D2E5F1"/>
<path d="m22.925 30.788l-3.484 3.217s-0.272 0.209-0.57 0.078l0.667-5.976" fill="#B5CFE4"/>
</svg>
