<?xml version="1.0" encoding="UTF-8" standalone="no"?>
<svg xmlns="http://www.w3.org/2000/svg" height="48px" width="48px" version="1.1" xmlns:xlink="http://www.w3.org/1999/xlink" viewBox="0 0 48 48">
 <g id="surface1">
  <path d="m5.5 40.5h37c1.934 0 3.5-1.566 3.5-3.5v-26c0-1.9336-1.566-3.5-3.5-3.5h-37c-1.9336 0-3.5 1.5664-3.5 3.5v26c0 1.934 1.5664 3.5 3.5 3.5z" fill="#E0E0E0"/>
  <path d="m26 40.5h16.5c1.934 0 3.5-1.566 3.5-3.5v-26c0-1.9336-1.566-3.5-3.5-3.5h-37c-1.9336 0-3.5 1.5664-3.5 3.5z" fill="#D9D9D9"/>
  <path d="m6.7461 40.5h35.754c1.934 0 3.5-1.566 3.5-3.5v-25.5z" fill="#eee"/>
  <path d="m25.746 40.5h16.754c1.934 0 3.5-1.566 3.5-3.5v-25.5l-27.23 20.117z" fill="#E0E0E0"/>
  <path d="m42.5 9.5h-37c-1.9336 0-3.5-0.4336-3.5 1.5v26c0 1.934 1.5664 3.5 3.5 3.5h1.5v-28.5h34v28.5h1.5c1.934 0 3.5-1.566 3.5-3.5v-26c0-1.9336-1.566-1.5-3.5-1.5z" fill="#CA3737"/>
  <path d="m42.5 7.5h-37c-1.9336 0-3.5 1.5352-3.5 3.5 0 1.207 1.5195 2.258 1.5195 2.258l20.48 14.5 20.48-14.5s1.52-1.051 1.52-2.258c0-1.9648-1.566-3.5-3.5-3.5z" fill="#F5F5F5"/>
  <path d="m43.246 7.582l-19.246 13.418-19.246-13.418c-1.5743 0.336-2.754 1.7149-2.754 3.418 0 1.207 1.5195 2.258 1.5195 2.258l20.48 14.5 20.48-14.5s1.52-1.051 1.52-2.258c0-1.7031-1.18-3.082-2.754-3.418z" fill="#E84F4B"/>
 </g>
</svg>
