<?xml version="1.0" encoding="utf-8"?>
<!-- Generator: Adobe Illustrator 21.0.0, SVG Export Plug-In . SVG Version: 6.00 Build 0)  -->
<svg version="1.1" id="Layer_1" xmlns="http://www.w3.org/2000/svg" xmlns:xlink="http://www.w3.org/1999/xlink" x="0px" y="0px" width="83px" height="83px"
	 viewBox="-10 -8.3 100 100" style="enable-background:new -10 -8.3 100 100;" xml:space="preserve">
<style type="text/css">
	.st0{fill:#3D4545;}
	.st1{fill:#E8E8E8;}
	.st2{fill:#EC4643;}
	.st3{fill:#FFCD2E;}
	.st4{fill:#C2E046;}
	.st5{fill:#FFFFFF;}
	.st6{fill:#D34A47;}
</style>
<g>
	<path class="st0" d="M62.3,60.9c0,3.2-2.6,5.8-5.8,5.8H6.4c-3.2,0-5.8-2.6-5.8-5.8V11.3c0-3.2,2.6-5.8,5.8-5.8h50.1
		c3.2,0,5.8,2.6,5.8,5.8V60.9z"/>
	<path class="st1" d="M62.3,14.6v-3.3c0-3.2-2.6-5.8-5.8-5.8H6.4c-3.2,0-5.8,2.6-5.8,5.8v3.3H62.3z"/>
	<circle class="st2" cx="55.8" cy="10.3" r="1.8"/>
	<circle class="st3" cx="50.9" cy="10.3" r="1.8"/>
	<circle class="st4" cx="46" cy="10.3" r="1.8"/>
	<path class="st1" d="M20.8,34.2C20.8,34.2,20.8,34.2,20.8,34.2L11,24.4c-1.1-1.1-2.8-1.1-3.9,0c-1.1,1.1-1.1,2.8,0,3.9l7.8,7.8
		L7.1,44C6,45,6,46.8,7.1,47.8c1.1,1.1,2.8,1.1,3.9,0l9.8-9.8c0,0,0,0,0,0c0.5-0.5,0.8-1.2,0.8-1.9C21.6,35.4,21.3,34.7,20.8,34.2z"
		/>
	<path class="st1" d="M42.3,45.9c0,1.5-1.2,2.7-2.8,2.7H25.7c-1.5,0-2.8-1.2-2.8-2.7l0,0c0-1.5,1.2-2.8,2.8-2.8h13.8
		C41,43.1,42.3,44.4,42.3,45.9L42.3,45.9z"/>
</g>
<g>
	<polygon class="st5" points="46.7,42.8 48,56.1 76.8,58.1 79.6,31.8 47.8,34.7 	"/>
	<polygon class="st5" points="49.7,65.5 48.8,63.8 76.2,63.8 75.1,65.8 63.2,68.7 49.8,65.5 	"/>
	<polygon class="st5" points="44.8,25.8 44.7,24.4 80.7,24.4 80.3,26 69.3,28.8 48,27.9 	"/>
	<g>
		<path class="st6" d="M72.5,81.8L73.3,69l2.1-3.6c0,0-4.8,2-12.9,2c-8.1,0-12.8-1.9-12.8-1.9l2.4,3.9l0.8,12.4
			c0,1.3,4.4,2.4,9.8,2.4C68.1,84.2,72.5,83.1,72.5,81.8"/>
		<path class="st6" d="M70.1,22l1.6-6.4l8.9-9.4l-2.4-2l-9.4,10l-1.9,7.6c-1.4,0-2.8-0.1-4.2-0.1c-9.9,0-18,1.1-18,2.5
			c0,1.4,8.1,2.5,18,2.5c9.9,0,18-1.1,18-2.5C80.7,23.3,76.4,22.4,70.1,22"/>
		<path class="st5" d="M69.1,25.6c0,0-0.3,0.1-1.4,0.1c-1,0-1.8,0-2-0.3c-0.1-0.1-0.1-0.2-0.1-0.3c0-0.2,0.1-0.3,0.3-0.4L66,25
			c-0.1,0-0.1,0-0.1,0.1c0,0.1,1.1,0.2,1.9,0.2c0.8,0,1.8-0.1,1.8-0.2c0,0-0.1-0.1-0.2-0.1l0.2-0.2c0.2,0.1,0.4,0.2,0.4,0.4
			C69.9,25.5,69.4,25.6,69.1,25.6"/>
		<path class="st6" d="M80.6,6.3c0.2-0.3-0.1-0.9-0.8-1.5c-0.6-0.6-1.3-0.8-1.6-0.5C78,4.5,78.4,5.2,79,5.8
			C79.7,6.3,80.4,6.6,80.6,6.3"/>
		<path class="st6" d="M72.1,50.5c-0.2-2,4.4-5,3.3-5.1c-2.6,0.1-3.9,3-5.2,6c-0.5,1.1-2.1,5.8-3.2,5.2c-1.1-0.6,1.4-4.4,2.1-6.7
			c-0.8,0.6-3.7,2.8-4.4,0.7c-1.2,1-3.8,1.6-3.5-1.1c-0.6,1.1-2.1,2.7-3.8,2.1c-2.3-0.9,1.3-8.1,2.2-7.7c0.9,0.4-0.2,2-0.5,2.6
			c-0.6,1.4-1.3,3.2-0.9,3.5c0.8,0.6,3-2.3,3.1-2.4c0.4-0.5,1.6-4.1,2.5-3.7c1,0.4-2.4,5.1-1.1,6.1c0.3,0.2,1.3-0.1,1.9-0.8
			c0.4-0.4,0.3-1.4,1.6-4.6c1.3-3.2,2.5-7.2,3.5-6.9c0.9,0.3,0.2,2.4-0.2,3.1c-1.6,3.6-4.2,9.5-3,9.1c1.3-0.5,1.9-0.5,3.2-1.9
			c1.2-1.5,1.2-3.8,2-3.8c0.8,0.1,0.7,0.8,0.5,1.4c0.8-0.9,3.9-2.9,4.6-1c0.9,2.3-4.4,5.6-3,5.4c1.3-0.2,3.3-1.5,4.2-2.7l2.4-21.7
			c0,0-2.4,2-17.9,2c-15.5,0-17.7-2-17.7-2l2.1,19.8c1.1-3.1,3.7-9.4,7.8-9.2c1.9,0.1,4.3,3.7,2.2,3.8c-0.9,0.1-1-1.8-2.1-2.1
			c-0.8-0.2-1.8,0.4-2.5,1.1c-1.4,1.4-4.3,6.7-4,9.3c0.5,3.4,4.7-1.2,5.4-2.5c0.5-1,0.8-3.8,1.9-3.5c1.1,0.3-0.1,3.2-0.9,5.8
			c-0.9,2.9-1.4,6-2.5,5.6c-1.1-0.4,0.7-4.1,0.6-4.7c-1,1-3,3.4-5.4,2.2l1.3,12.3c0,0,3.4,2.7,13.6,2.7c10.2,0,13.8-2.6,13.8-2.6
			l1.6-14.3C76.4,50.8,72.3,53.1,72.1,50.5"/>
	</g>
</g>
</svg>
