<?xml version="1.0" encoding="utf-8"?>
<!-- Generator: Adobe Illustrator 16.0.0, SVG Export Plug-In . SVG Version: 6.00 Build 0)  -->
<!DOCTYPE svg PUBLIC "-//W3C//DTD SVG 1.1//EN" "http://www.w3.org/Graphics/SVG/1.1/DTD/svg11.dtd">
<svg version="1.1" id="Fixed" xmlns="http://www.w3.org/2000/svg" xmlns:xlink="http://www.w3.org/1999/xlink" x="0px" y="0px"
	 width="80px" height="79.999px" viewBox="0 0 80 79.999" enable-background="new 0 0 80 79.999" xml:space="preserve">
<g>
	<g>
		<path fill="#464342" d="M5.687,39.999c0,13.582,7.892,25.32,19.339,30.881L8.658,26.034C6.753,30.301,5.687,35.023,5.687,39.999z"
			/>
		<path fill="#464342" d="M63.164,38.268c0-4.242-1.523-7.178-2.829-9.463c-1.738-2.828-3.37-5.22-3.37-8.048
			c0-3.154,2.392-6.09,5.763-6.09c0.151,0,0.296,0.019,0.444,0.028C57.067,9.101,48.933,5.685,40,5.685
			c-11.988,0-22.534,6.151-28.669,15.466c0.806,0.026,1.564,0.042,2.208,0.042c3.588,0,9.146-0.436,9.146-0.436
			c1.849-0.108,2.067,2.609,0.219,2.828c0,0-1.859,0.218-3.927,0.326l12.495,37.169l7.51-22.521L33.635,23.91
			c-1.849-0.108-3.599-0.326-3.599-0.326c-1.849-0.109-1.632-2.936,0.218-2.828c0,0,5.666,0.436,9.037,0.436
			c3.588,0,9.146-0.436,9.146-0.436c1.85-0.108,2.067,2.609,0.219,2.828c0,0-1.861,0.218-3.927,0.326l12.4,36.886l3.424-11.436
			C62.035,44.612,63.164,41.204,63.164,38.268z"/>
		<path fill="#464342" d="M40.602,43L30.306,72.916c3.075,0.904,6.326,1.398,9.694,1.398c3.996,0,7.828-0.69,11.396-1.945
			c-0.092-0.147-0.177-0.304-0.246-0.473L40.602,43z"/>
		<path fill="#464342" d="M70.11,23.537c0.147,1.093,0.231,2.265,0.231,3.528c0,3.481-0.652,7.395-2.609,12.291l-10.48,30.302
			c10.201-5.947,17.062-17,17.062-29.659C74.313,34.032,72.789,28.424,70.11,23.537z"/>
		<path fill="#464342" d="M40,0C17.943,0,0,17.943,0,39.999c0,22.057,17.943,40,40,40c22.057,0,40.001-17.943,40.001-40
			C80,17.943,62.056,0,40,0z M40,78.165c-21.044,0-38.165-17.122-38.165-38.167C1.834,18.955,18.956,1.834,40,1.834
			s38.166,17.121,38.166,38.165C78.166,61.043,61.043,78.165,40,78.165z"/>
	</g>
</g>
</svg>
