<?xml version="1.0" encoding="utf-8"?>
<!-- Generator: Adobe Illustrator 16.0.0, SVG Export Plug-In . SVG Version: 6.00 Build 0)  -->
<!DOCTYPE svg PUBLIC "-//W3C//DTD SVG 1.1//EN" "http://www.w3.org/Graphics/SVG/1.1/DTD/svg11.dtd">
<svg version="1.1" id="Layer_1" xmlns="http://www.w3.org/2000/svg" xmlns:xlink="http://www.w3.org/1999/xlink" x="0px" y="0px"
	 width="105.4px" height="79.999px" viewBox="0 0 105.4 79.999" enable-background="new 0 0 105.4 79.999" xml:space="preserve">
<g>
	<path fill-rule="evenodd" clip-rule="evenodd" fill="#CD659C" d="M74.527,60.455c-0.338-0.243-0.278-1.022,0.818-3.446
		c0.431-0.95,1.418-2.558,3.131-4.088c0.196,0.63,0.321,1.232,0.316,1.795C78.771,58.472,76.126,59.875,74.527,60.455L74.527,60.455
		z M60.444,63.702c-0.447,0.238-0.856,0.387-1.047,0.276c-0.143-0.088,0.186-0.397,0.186-0.397s2.285-2.491,3.185-3.629
		c0.524-0.657,1.13-1.441,1.795-2.314c0.005,0.089,0.005,0.172,0.005,0.26C64.563,60.88,61.716,62.896,60.444,63.702L60.444,63.702z
		 M42.172,54.876c-1.058,2.607-3.272,9.29-4.62,8.932c-1.156-0.31-1.86-5.386-0.229-10.384c0.818-2.513,2.574-5.518,3.6-6.688
		c1.658-1.872,3.485-2.491,3.927-1.729C45.418,45.979,42.833,53.236,42.172,54.876L42.172,54.876z M20.05,70.104
		c-3.032,3.353-7.276,4.617-9.098,3.552c-1.963-1.154-1.184-6.092,2.542-9.649c2.269-2.17,5.204-4.17,7.151-5.396
		c0.441-0.271,1.091-0.669,1.882-1.149c0.131-0.077,0.202-0.115,0.202-0.115V57.34c0.153-0.094,0.305-0.188,0.469-0.287
		C24.555,62.123,23.241,66.58,20.05,70.104L20.05,70.104z M90.71,45.979c-3.687,0.022-6.878,0.917-9.55,2.254
		c-0.977-1.978-1.97-3.718-2.133-5.01c-0.196-1.514-0.42-2.414-0.186-4.209c0.234-1.801,1.26-4.347,1.243-4.534
		c-0.011-0.193-0.229-1.11-2.351-1.127c-2.127-0.011-3.943,0.414-4.156,0.983c-0.218,0.568-0.627,1.845-0.878,3.182
		c-0.376,1.949-4.243,8.908-6.441,12.548c-0.72-1.419-1.331-2.673-1.456-3.661c-0.196-1.514-0.42-2.414-0.186-4.209
		c0.234-1.801,1.26-4.347,1.249-4.54c-0.017-0.188-0.234-1.104-2.356-1.121c-2.127-0.017-3.943,0.414-4.156,0.983
		c-0.213,0.568-0.441,1.895-0.878,3.181c-0.437,1.281-5.58,12.892-6.927,15.896c-0.687,1.536-1.282,2.768-1.707,3.607v-0.006
		c0,0-0.027,0.055-0.071,0.149c-0.36,0.718-0.578,1.115-0.578,1.115s0.005,0.006,0.005,0.011c-0.284,0.53-0.589,1.017-0.742,1.017
		c-0.109,0-0.322-1.397,0.043-3.319c0.764-4.026,2.607-10.307,2.585-10.521c-0.005-0.11,0.344-1.204-1.2-1.778
		c-1.5-0.553-2.034,0.37-2.171,0.375c-0.131,0-0.229,0.326-0.229,0.326s1.669-7.059-3.185-7.059c-3.038,0-7.243,3.363-9.316,6.412
		c-1.309,0.724-4.107,2.271-7.08,3.922c-1.14,0.635-2.302,1.281-3.409,1.899c-0.076-0.088-0.147-0.171-0.224-0.254
		C18.381,46.128,7.494,41.626,7.952,33.076c0.169-3.114,1.238-11.3,20.923-21.23c16.123-8.136,29.033-5.898,31.264-0.939
		c3.186,7.092-6.899,20.265-23.644,22.17c-6.381,0.724-9.741-1.783-10.576-2.717c-0.878-0.978-1.009-1.022-1.342-0.84
		c-0.535,0.299-0.197,1.165,0,1.685c0.501,1.314,2.552,3.651,6.054,4.816c3.076,1.021,10.565,1.585,19.625-1.966
		c10.146-3.972,18.07-15.029,15.741-24.27C63.63,0.391,48.243-2.702,33.675,2.539c-8.667,3.115-18.048,8.014-24.795,14.404
		C1.86,23.588,0,29.48,0,32.707c0,0.458,0.038,0.861,0.104,1.209c1.871,9.82,15.239,16.211,20.59,20.949
		c-0.267,0.149-0.513,0.287-0.736,0.414c-2.684,1.343-12.872,6.744-15.419,12.444C1.647,74.196,4.996,78.836,7.216,79.46
		c6.873,1.938,13.925-1.546,17.716-7.269c3.791-5.722,3.327-13.178,1.587-16.58c-0.021-0.039-0.043-0.083-0.065-0.122
		c0.693-0.414,1.396-0.839,2.1-1.254c1.364-0.812,2.705-1.568,3.867-2.215c-0.649,1.807-1.129,3.972-1.375,7.098
		c-0.295,3.673,1.194,8.423,3.136,10.29c0.856,0.822,1.887,0.845,2.542,0.845c2.264,0,3.294-1.911,4.435-4.164
		c1.396-2.768,2.634-5.987,2.634-5.987s-1.555,8.699,2.678,8.699c1.538,0,3.092-2.027,3.78-3.055
		c0.005,0.011,0.005,0.017,0.005,0.017s0.038-0.066,0.12-0.204c0.158-0.249,0.251-0.403,0.251-0.403s0-0.017,0.005-0.045
		c0.622-1.093,1.997-3.578,4.059-7.671c2.661-5.297,5.214-11.925,5.214-11.925s0.24,1.618,1.021,4.303
		c0.458,1.574,1.429,3.319,2.197,4.993c-0.621,0.867-0.998,1.364-0.998,1.364s0,0.011,0.011,0.027
		c-0.496,0.663-1.047,1.381-1.63,2.076c-2.101,2.535-4.604,5.43-4.937,6.27c-0.398,0.982-0.306,1.706,0.458,2.286
		c0.557,0.426,1.549,0.492,2.586,0.426c1.893-0.133,3.218-0.608,3.877-0.896c1.021-0.364,2.21-0.938,3.328-1.772
		c2.062-1.535,3.305-3.733,3.185-6.639c-0.065-1.602-0.567-3.192-1.205-4.695c0.186-0.271,0.371-0.547,0.562-0.822
		c3.251-4.816,5.771-10.103,5.771-10.103s0.24,1.618,1.015,4.303c0.398,1.359,1.173,2.839,1.871,4.286
		c-3.055,2.519-4.953,5.44-5.607,7.356c-1.222,3.546-0.267,5.153,1.522,5.518c0.813,0.166,1.952-0.21,2.814-0.579
		c1.068-0.359,2.355-0.956,3.556-1.851c2.067-1.535,4.047-3.684,3.927-6.595c-0.054-1.325-0.408-2.64-0.889-3.899
		c2.591-1.094,5.945-1.701,10.216-1.198c9.169,1.082,10.969,6.882,10.625,9.307s-2.269,3.761-2.912,4.164s-0.84,0.541-0.786,0.84
		c0.082,0.437,0.377,0.42,0.928,0.325c0.753-0.127,4.811-1.972,4.985-6.45C105.617,52.176,100.233,45.929,90.71,45.979L90.71,45.979
		z"/>
</g>
</svg>
