<?xml version="1.0" encoding="utf-8"?>
<!-- Generator: Adobe Illustrator 16.0.0, SVG Export Plug-In . SVG Version: 6.00 Build 0)  -->
<!DOCTYPE svg PUBLIC "-//W3C//DTD SVG 1.1//EN" "http://www.w3.org/Graphics/SVG/1.1/DTD/svg11.dtd">
<svg version="1.1" id="Layer_1" xmlns="http://www.w3.org/2000/svg" xmlns:xlink="http://www.w3.org/1999/xlink" x="0px" y="0px"
	 width="100px" height="100px" viewBox="0 0 100 100" enable-background="new 0 0 100 100" xml:space="preserve">
<linearGradient id="SVGID_1_" gradientUnits="userSpaceOnUse" x1="50" y1="100" x2="50" y2="0">
	<stop  offset="0" style="stop-color:#56AF5E"/>
	<stop  offset="1" style="stop-color:#C1D24D"/>
</linearGradient>
<circle fill="url(#SVGID_1_)" cx="50" cy="50" r="50"/>
<g>
	<path fill="#E8E8E8" d="M57.069,19.172c-0.584-0.585-1.103-1.208-1.591-1.848c-0.1,0.49-0.152,0.997-0.152,1.517v18.004
		c0,4.202,3.406,7.608,7.608,7.608h18.004c0.442,0,0.873-0.046,1.295-0.118L57.069,19.172z"/>
	<path fill="#434347" d="M56.744,20.423c-0.65-0.649-1.22-1.347-1.75-2.063H23.647c-3.37,0-6.102,2.731-6.102,6.102v52.112
		c0,3.37,2.731,6.102,6.102,6.102h52.704c3.37,0,6.103-2.731,6.103-6.102V46.134L56.744,20.423z"/>
	<linearGradient id="SVGID_2_" gradientUnits="userSpaceOnUse" x1="34.5225" y1="52.5176" x2="65.4785" y2="52.5176">
		<stop  offset="0" style="stop-color:#EE942E"/>
		<stop  offset="1" style="stop-color:#E74744"/>
	</linearGradient>
	<path fill="url(#SVGID_2_)" d="M52.718,63.773c0.962-0.252,1.875-0.623,2.723-1.1c0.002-0.029,0.005-0.06,0.005-0.09
		c0-0.049-0.004-0.097-0.01-0.145c0.048,0.006,0.096,0.01,0.145,0.01c0.05,0,0.098-0.004,0.146-0.01
		c-0.003,0.023-0.005,0.048-0.007,0.072c0.026-0.015,0.052-0.029,0.076-0.044l3.552,2.389l2.647-2.646l-2.221-3.686
		c0,0,0,0.001,0,0.003c0,0.049,0.004,0.097,0.009,0.145c-0.006-0.001-0.013-0.003-0.02-0.004c-0.041-0.004-0.082-0.006-0.125-0.006
		c-0.049,0-0.097,0.004-0.145,0.01c0.006-0.048,0.011-0.096,0.011-0.145s-0.005-0.098-0.011-0.145
		c0.048,0.005,0.096,0.009,0.145,0.009c0.043,0,0.084-0.002,0.125-0.006c0.007-0.001,0.014-0.003,0.02-0.003
		c-0.002,0.014-0.002,0.028-0.003,0.043c0.556-0.945,0.983-1.974,1.255-3.066l4.444-0.869v-3.743l-4.465-1.108
		c-0.038-0.146-0.079-0.294-0.123-0.438c-0.015,0.001-0.029,0.003-0.044,0.004c0.004-0.039,0.007-0.079,0.007-0.12
		c-0.287-0.922-0.686-1.796-1.181-2.603l2.362-3.514l-2.646-2.647l-0.966,0.583c0,0.014-0.002,0.027-0.002,0.041
		c0,0.05,0.004,0.098,0.01,0.145c-0.048-0.005-0.096-0.009-0.146-0.009c-0.049,0-0.097,0.004-0.145,0.009
		c0.001-0.006,0.003-0.012,0.003-0.018l-2.459,1.48c-0.919-0.544-1.919-0.967-2.978-1.242l-0.835-4.27h-3.744l-1.045,4.207
		c-1.167,0.278-2.267,0.731-3.268,1.331l-0.267-0.179c0.001,0.014,0.002,0.027,0.004,0.042c-0.007,0-0.014-0.002-0.021-0.003
		c-0.04-0.004-0.082-0.006-0.124-0.006c-0.049,0-0.097,0.003-0.145,0.009c0.006-0.047,0.009-0.096,0.009-0.145
		c0-0.029-0.002-0.058-0.004-0.087l-3.021-2.03l-0.762,0.761c0,0.002,0,0.003,0,0.004c0,0.05,0.004,0.098,0.009,0.145
		c-0.047-0.005-0.096-0.009-0.145-0.009c-0.001,0-0.003,0-0.004,0l-1.213,1.212c0,0.002,0,0.003,0,0.005
		c0,0.049,0.004,0.098,0.009,0.145c-0.007,0-0.014-0.002-0.02-0.003c-0.041-0.004-0.083-0.006-0.125-0.006c-0.001,0-0.003,0-0.005,0
		l-0.392,0.393l2.235,3.711c-0.6,0.99-1.055,2.076-1.338,3.23l-3.068,0.601c0,0.015-0.002,0.03-0.002,0.045
		c0,0.049,0.004,0.097,0.009,0.145c-0.047-0.006-0.096-0.009-0.145-0.009s-0.097,0.003-0.144,0.009
		c0.005-0.045,0.008-0.09,0.008-0.136l-0.635,0.124v3.743l3.965,0.984c0.274,1.138,0.716,2.208,1.297,3.188l-1.772,2.636
		c0.037,0,0.074-0.002,0.111-0.006c0.006,0,0.013-0.002,0.02-0.003c-0.005,0.048-0.009,0.096-0.009,0.146
		c0,0.049,0.004,0.097,0.009,0.144c-0.007,0-0.014-0.002-0.02-0.003c-0.041-0.003-0.083-0.006-0.125-0.006
		c-0.049,0-0.097,0.004-0.145,0.009c0.002-0.018,0.004-0.035,0.005-0.053l-0.5,0.745l2.646,2.646l3.736-2.252
		c1.029,0.628,2.165,1.1,3.373,1.382l0.255,1.304c0.032,0.003,0.063,0.006,0.097,0.006c0.049,0,0.097-0.004,0.145-0.01
		c-0.006,0.048-0.01,0.096-0.01,0.145s0.004,0.098,0.01,0.145c-0.048-0.005-0.096-0.01-0.145-0.01c-0.015,0-0.028,0.002-0.042,0.002
		l0.503,2.569h2.108c0,0,0,0,0-0.001c0-0.049-0.003-0.098-0.009-0.145c0.048,0.006,0.096,0.01,0.145,0.01s0.097-0.004,0.145-0.01
		c-0.006,0.047-0.01,0.096-0.01,0.145c0,0.001,0,0.001,0,0.001h1.363L52.718,63.773z M50.315,65.434
		c-0.048-0.005-0.096-0.01-0.145-0.01s-0.097,0.005-0.145,0.01c0.006-0.047,0.009-0.096,0.009-0.145s-0.003-0.097-0.009-0.145
		c0.048,0.006,0.096,0.01,0.145,0.01s0.097-0.004,0.145-0.01c-0.006,0.048-0.01,0.096-0.01,0.145S50.31,65.387,50.315,65.434z
		 M40.848,61.376c-0.048-0.005-0.096-0.009-0.145-0.009s-0.097,0.004-0.145,0.009c0.006-0.047,0.01-0.095,0.01-0.144
		c0-0.05-0.004-0.098-0.01-0.146c0.048,0.006,0.096,0.01,0.145,0.01s0.097-0.004,0.145-0.01c-0.005,0.048-0.009,0.096-0.009,0.146
		C40.839,61.281,40.843,61.329,40.848,61.376z M39.216,62.584c0-0.049-0.004-0.097-0.009-0.145c0.047,0.006,0.095,0.01,0.144,0.01
		s0.098-0.004,0.145-0.01c-0.005,0.048-0.009,0.096-0.009,0.145s0.004,0.098,0.009,0.145c-0.047-0.005-0.096-0.01-0.145-0.01
		s-0.097,0.005-0.144,0.01C39.212,62.682,39.216,62.633,39.216,62.584z M36.791,51.908c-0.048-0.005-0.096-0.009-0.146-0.009
		c-0.049,0-0.097,0.004-0.144,0.009c0.005-0.046,0.009-0.095,0.009-0.144s-0.004-0.098-0.009-0.146
		c0.047,0.007,0.095,0.011,0.144,0.011c0.05,0,0.098-0.004,0.146-0.011c-0.006,0.048-0.01,0.097-0.01,0.146
		S36.785,51.862,36.791,51.908z M37.854,53.262c0.006-0.048,0.01-0.096,0.01-0.146c0-0.048-0.004-0.097-0.01-0.144
		c0.048,0.005,0.096,0.009,0.145,0.009c0.042,0,0.084-0.002,0.125-0.006c0.006-0.001,0.013-0.002,0.02-0.003
		c-0.005,0.047-0.009,0.096-0.009,0.144c0,0.05,0.004,0.098,0.009,0.146c-0.007-0.001-0.014-0.003-0.02-0.003
		c-0.041-0.005-0.083-0.006-0.125-0.006C37.949,53.253,37.901,53.256,37.854,53.262z M39.207,43.794
		c0.005-0.047,0.009-0.096,0.009-0.145s-0.004-0.097-0.009-0.145c0.047,0.006,0.095,0.01,0.144,0.01s0.098-0.004,0.145-0.01
		c-0.005,0.048-0.009,0.096-0.009,0.145s0.004,0.098,0.009,0.145c-0.047-0.005-0.096-0.01-0.145-0.01S39.254,43.789,39.207,43.794z
		 M41.911,43.505c0.048,0.006,0.096,0.01,0.145,0.01s0.098-0.004,0.145-0.01c-0.006,0.048-0.009,0.096-0.009,0.145
		s0.003,0.098,0.009,0.145c-0.047-0.005-0.096-0.01-0.145-0.01s-0.097,0.005-0.145,0.01c0.006-0.047,0.01-0.096,0.01-0.145
		S41.917,43.553,41.911,43.505z M58.141,43.505c0.048,0.006,0.096,0.01,0.145,0.01c0.05,0,0.098-0.004,0.146-0.01
		c-0.006,0.048-0.01,0.096-0.01,0.145s0.004,0.098,0.01,0.145c-0.048-0.005-0.096-0.01-0.146-0.01c-0.049,0-0.097,0.005-0.145,0.01
		c0.006-0.047,0.01-0.096,0.01-0.145S58.146,43.553,58.141,43.505z M59.782,61.087c-0.005,0.048-0.009,0.096-0.009,0.146
		c0,0.049,0.004,0.097,0.009,0.144c-0.006,0-0.013-0.002-0.02-0.003c-0.041-0.003-0.082-0.006-0.125-0.006
		c-0.049,0-0.097,0.004-0.145,0.009c0.006-0.047,0.011-0.095,0.011-0.144c0-0.05-0.005-0.098-0.011-0.146
		c0.048,0.006,0.096,0.01,0.145,0.01c0.043,0,0.084-0.002,0.125-0.007C59.77,61.09,59.776,61.088,59.782,61.087z M55.726,60.023
		c-0.048-0.005-0.096-0.009-0.146-0.009c-0.049,0-0.097,0.004-0.145,0.009c0.006-0.047,0.01-0.095,0.01-0.145
		c0-0.049-0.004-0.097-0.01-0.145c0.048,0.006,0.096,0.01,0.145,0.01c0.05,0,0.098-0.004,0.146-0.01
		c-0.006,0.048-0.01,0.096-0.01,0.145C55.716,59.929,55.72,59.977,55.726,60.023z M51.667,61.376
		c-0.047-0.005-0.095-0.009-0.144-0.009c-0.05,0-0.098,0.004-0.146,0.009c0.007-0.047,0.01-0.095,0.01-0.144
		c0-0.05-0.003-0.098-0.01-0.146c0.048,0.006,0.096,0.01,0.146,0.01c0.049,0,0.097-0.004,0.144-0.01
		c-0.005,0.048-0.009,0.096-0.009,0.146C51.658,61.281,51.662,61.329,51.667,61.376z M48.683,61.232c0-0.05-0.003-0.098-0.009-0.146
		c0.047,0.006,0.096,0.01,0.145,0.01c0.042,0,0.083-0.002,0.124-0.007c0.007,0,0.014-0.002,0.021-0.003
		c-0.006,0.048-0.01,0.096-0.01,0.146c0,0.049,0.004,0.097,0.01,0.144c-0.007,0-0.014-0.002-0.021-0.003
		c-0.041-0.003-0.082-0.006-0.124-0.006c-0.049,0-0.098,0.004-0.145,0.009C48.68,61.329,48.683,61.281,48.683,61.232z
		 M50.035,62.584c0-0.049-0.003-0.097-0.009-0.145c0.048,0.006,0.096,0.01,0.145,0.01s0.097-0.004,0.145-0.01
		c-0.006,0.048-0.01,0.096-0.01,0.145s0.004,0.098,0.01,0.145c-0.048-0.005-0.096-0.01-0.145-0.01s-0.097,0.005-0.145,0.01
		C50.032,62.682,50.035,62.633,50.035,62.584z M58.141,62.439c0.048,0.006,0.096,0.01,0.145,0.01c0.05,0,0.098-0.004,0.146-0.01
		c-0.006,0.048-0.01,0.096-0.01,0.145s0.004,0.098,0.01,0.145c-0.048-0.005-0.096-0.01-0.146-0.01c-0.049,0-0.097,0.005-0.145,0.01
		c0.006-0.047,0.01-0.096,0.01-0.145S58.146,62.487,58.141,62.439z M58.421,59.879c0,0.05,0.004,0.098,0.01,0.145
		c-0.048-0.005-0.096-0.009-0.146-0.009c-0.049,0-0.097,0.004-0.145,0.009c0.006-0.047,0.01-0.095,0.01-0.145
		c0-0.049-0.004-0.097-0.01-0.145c0.048,0.006,0.096,0.01,0.145,0.01c0.05,0,0.098-0.004,0.146-0.01
		C58.425,59.782,58.421,59.83,58.421,59.879z M57.077,58.672c-0.047-0.006-0.096-0.01-0.145-0.01s-0.097,0.004-0.145,0.01
		c0.006-0.048,0.01-0.096,0.01-0.145s-0.004-0.098-0.01-0.145c0.048,0.005,0.096,0.009,0.145,0.009s0.098-0.004,0.145-0.009
		c-0.005,0.047-0.009,0.096-0.009,0.145S57.072,58.624,57.077,58.672z M58.141,57.029c0.048,0.006,0.096,0.011,0.145,0.011
		c0.05,0,0.098-0.005,0.146-0.011c-0.006,0.048-0.01,0.097-0.01,0.146s0.004,0.098,0.01,0.145c-0.048-0.006-0.096-0.01-0.146-0.01
		c-0.049,0-0.097,0.004-0.145,0.01c0.006-0.047,0.01-0.096,0.01-0.145S58.146,57.077,58.141,57.029z M58.431,54.614
		c-0.048-0.006-0.096-0.01-0.146-0.01c-0.049,0-0.097,0.004-0.145,0.01c0.006-0.048,0.01-0.096,0.01-0.146
		c0-0.048-0.004-0.097-0.01-0.145c0.048,0.007,0.096,0.011,0.145,0.011c0.05,0,0.098-0.004,0.146-0.011
		c-0.006,0.048-0.01,0.097-0.01,0.145C58.421,54.519,58.425,54.566,58.431,54.614z M55.445,46.354c0-0.049-0.004-0.097-0.01-0.145
		c0.048,0.006,0.096,0.01,0.145,0.01c0.05,0,0.098-0.004,0.146-0.01c-0.006,0.048-0.01,0.096-0.01,0.145
		c0,0.05,0.004,0.097,0.01,0.145c-0.048-0.006-0.096-0.01-0.146-0.01c-0.049,0-0.097,0.004-0.145,0.01
		C55.441,46.451,55.445,46.404,55.445,46.354z M56.788,47.563c0.048,0.005,0.096,0.01,0.145,0.01s0.098-0.005,0.145-0.01
		c-0.005,0.048-0.009,0.096-0.009,0.145c0,0.05,0.004,0.097,0.009,0.145c-0.047-0.006-0.096-0.009-0.145-0.009
		s-0.097,0.003-0.145,0.009c0.006-0.048,0.01-0.095,0.01-0.145C56.798,47.658,56.794,47.61,56.788,47.563z M58.285,46.22
		c0.05,0,0.098-0.004,0.146-0.01c-0.006,0.048-0.01,0.096-0.01,0.145c0,0.05,0.004,0.097,0.01,0.145
		c-0.048-0.006-0.096-0.01-0.146-0.01c-0.049,0-0.097,0.004-0.145,0.01c0.006-0.048,0.01-0.095,0.01-0.145
		c0-0.049-0.004-0.097-0.01-0.145C58.188,46.216,58.236,46.22,58.285,46.22z M58.285,51.63c0.05,0,0.098-0.004,0.146-0.011
		c-0.006,0.048-0.01,0.097-0.01,0.146s0.004,0.098,0.01,0.144c-0.048-0.005-0.096-0.009-0.146-0.009
		c-0.049,0-0.097,0.004-0.145,0.009c0.006-0.046,0.01-0.095,0.01-0.144s-0.004-0.098-0.01-0.146
		C58.188,51.626,58.236,51.63,58.285,51.63z M59.782,53.262c-0.006-0.001-0.013-0.003-0.02-0.003
		c-0.041-0.005-0.082-0.006-0.125-0.006c-0.049,0-0.097,0.003-0.145,0.009c0.006-0.048,0.011-0.096,0.011-0.146
		c0-0.048-0.005-0.097-0.011-0.144c0.048,0.005,0.096,0.009,0.145,0.009c0.043,0,0.084-0.002,0.125-0.006
		c0.007-0.001,0.014-0.002,0.02-0.003c-0.005,0.047-0.009,0.096-0.009,0.144C59.773,53.166,59.777,53.214,59.782,53.262z
		 M63.84,51.908c-0.048-0.005-0.096-0.009-0.145-0.009s-0.097,0.004-0.145,0.009c0.006-0.046,0.01-0.095,0.01-0.144
		s-0.004-0.098-0.01-0.146c0.048,0.007,0.096,0.011,0.145,0.011s0.097-0.004,0.145-0.011c-0.005,0.048-0.01,0.097-0.01,0.146
		S63.835,51.862,63.84,51.908z M62.479,53.116c0,0.05,0.004,0.098,0.009,0.146c-0.048-0.006-0.096-0.009-0.145-0.009
		s-0.098,0.003-0.145,0.009c0.006-0.048,0.01-0.096,0.01-0.146c0-0.048-0.004-0.097-0.01-0.144c0.047,0.005,0.096,0.009,0.145,0.009
		s0.097-0.004,0.145-0.009C62.482,53.02,62.479,53.068,62.479,53.116z M61.126,51.765c0,0.049,0.004,0.098,0.009,0.144
		c-0.048-0.005-0.096-0.009-0.145-0.009s-0.097,0.004-0.144,0.009c0.004-0.046,0.009-0.095,0.009-0.144s-0.005-0.098-0.009-0.146
		c0.047,0.007,0.095,0.011,0.144,0.011s0.097-0.004,0.145-0.011C61.13,51.667,61.126,51.716,61.126,51.765z M59.782,50.268
		c-0.005,0.047-0.009,0.096-0.009,0.145s0.004,0.097,0.009,0.145c-0.006,0-0.013-0.003-0.02-0.003
		c-0.041-0.004-0.082-0.006-0.125-0.006c-0.049,0-0.097,0.003-0.145,0.009c0.006-0.048,0.011-0.096,0.011-0.145
		s-0.005-0.098-0.011-0.145c0.048,0.005,0.096,0.009,0.145,0.009c0.043,0,0.084-0.002,0.125-0.007
		C59.77,50.27,59.776,50.269,59.782,50.268z M58.431,49.204c-0.048-0.006-0.096-0.01-0.146-0.01c-0.049,0-0.097,0.004-0.145,0.01
		c0.006-0.048,0.01-0.096,0.01-0.145s-0.004-0.098-0.01-0.146c0.048,0.007,0.096,0.011,0.145,0.011c0.05,0,0.098-0.004,0.146-0.011
		c-0.006,0.048-0.01,0.097-0.01,0.146S58.425,49.156,58.431,49.204z M56.788,44.857c0.048,0.006,0.096,0.01,0.145,0.01
		s0.098-0.004,0.145-0.01c-0.005,0.047-0.009,0.096-0.009,0.145s0.004,0.097,0.009,0.145c-0.047-0.006-0.096-0.009-0.145-0.009
		s-0.097,0.003-0.145,0.009c0.006-0.048,0.01-0.096,0.01-0.145S56.794,44.904,56.788,44.857z M54.372,45.146
		c-0.006-0.001-0.013-0.002-0.021-0.003c-0.04-0.004-0.082-0.006-0.123-0.006c-0.049,0-0.098,0.003-0.145,0.009
		c0.005-0.048,0.009-0.096,0.009-0.145s-0.004-0.098-0.009-0.145c0.047,0.006,0.096,0.01,0.145,0.01
		c0.041,0,0.083-0.003,0.123-0.007c0.008-0.001,0.015-0.002,0.021-0.003c-0.005,0.047-0.009,0.096-0.009,0.145
		S54.367,45.099,54.372,45.146z M46.258,45.146c-0.048-0.006-0.096-0.009-0.145-0.009s-0.098,0.003-0.145,0.009
		c0.006-0.048,0.009-0.096,0.009-0.145s-0.003-0.098-0.009-0.145c0.047,0.006,0.096,0.01,0.145,0.01s0.097-0.004,0.145-0.01
		c-0.005,0.047-0.01,0.096-0.01,0.145S46.253,45.099,46.258,45.146z M43.532,47.848c-0.04-0.003-0.082-0.005-0.124-0.005
		c-0.049,0-0.097,0.003-0.145,0.009c0.006-0.048,0.009-0.095,0.009-0.145c0-0.049-0.003-0.097-0.009-0.145
		c0.048,0.005,0.096,0.01,0.145,0.01c0.042,0,0.084-0.003,0.124-0.007c0.007-0.001,0.014-0.002,0.021-0.003
		c-0.005,0.048-0.009,0.096-0.009,0.145c0,0.05,0.004,0.097,0.009,0.145C43.546,47.852,43.539,47.849,43.532,47.848z M43.553,58.383
		c-0.005,0.047-0.009,0.096-0.009,0.145s0.004,0.097,0.009,0.145c-0.007-0.001-0.014-0.003-0.021-0.004
		c-0.04-0.004-0.082-0.006-0.124-0.006c-0.049,0-0.097,0.004-0.145,0.01c0.006-0.048,0.009-0.096,0.009-0.145
		s-0.003-0.098-0.009-0.145c0.048,0.005,0.096,0.009,0.145,0.009c0.042,0,0.084-0.002,0.124-0.006
		C43.539,58.385,43.546,58.383,43.553,58.383z M42.056,46.489c-0.049,0-0.097,0.004-0.145,0.01c0.006-0.048,0.01-0.095,0.01-0.145
		c0-0.049-0.004-0.097-0.01-0.145c0.048,0.006,0.096,0.01,0.145,0.01s0.098-0.004,0.145-0.01c-0.006,0.048-0.009,0.096-0.009,0.145
		c0,0.05,0.003,0.097,0.009,0.145C42.153,46.493,42.104,46.489,42.056,46.489z M40.559,50.268c0.048,0.005,0.096,0.009,0.145,0.009
		s0.097-0.004,0.145-0.009c-0.005,0.047-0.009,0.096-0.009,0.145s0.004,0.097,0.009,0.145c-0.048-0.006-0.096-0.009-0.145-0.009
		s-0.097,0.003-0.145,0.009c0.006-0.048,0.01-0.096,0.01-0.145S40.564,50.314,40.559,50.268z M39.486,51.765
		c0,0.049,0.004,0.098,0.009,0.144c-0.047-0.005-0.096-0.009-0.145-0.009s-0.097,0.004-0.144,0.009
		c0.005-0.046,0.009-0.095,0.009-0.144s-0.004-0.098-0.009-0.146c0.047,0.007,0.095,0.011,0.144,0.011s0.098-0.004,0.145-0.011
		C39.49,51.667,39.486,51.716,39.486,51.765z M40.559,52.973c0.048,0.005,0.096,0.009,0.145,0.009s0.097-0.004,0.145-0.009
		c-0.005,0.047-0.009,0.096-0.009,0.144c0,0.05,0.004,0.098,0.009,0.146c-0.048-0.006-0.096-0.009-0.145-0.009
		s-0.097,0.003-0.145,0.009c0.006-0.048,0.01-0.096,0.01-0.146C40.568,53.068,40.564,53.02,40.559,52.973z M42.056,57.04
		c0.049,0,0.098-0.005,0.145-0.011c-0.006,0.048-0.009,0.097-0.009,0.146s0.003,0.098,0.009,0.145
		c-0.047-0.006-0.096-0.01-0.145-0.01s-0.097,0.004-0.145,0.01c0.006-0.047,0.01-0.096,0.01-0.145s-0.004-0.098-0.01-0.146
		C41.959,57.035,42.007,57.04,42.056,57.04z M42.2,54.614c-0.047-0.006-0.096-0.01-0.145-0.01s-0.097,0.004-0.145,0.01
		c0.006-0.048,0.01-0.096,0.01-0.146c0-0.048-0.004-0.097-0.01-0.145c0.048,0.007,0.096,0.011,0.145,0.011s0.098-0.004,0.145-0.011
		c-0.006,0.048-0.009,0.097-0.009,0.145C42.191,54.519,42.194,54.566,42.2,54.614z M41.911,51.908
		c0.006-0.046,0.01-0.095,0.01-0.144s-0.004-0.098-0.01-0.146c0.048,0.007,0.096,0.011,0.145,0.011s0.098-0.004,0.145-0.011
		c-0.006,0.048-0.009,0.097-0.009,0.146s0.003,0.098,0.009,0.144c-0.047-0.005-0.096-0.009-0.145-0.009S41.959,51.903,41.911,51.908
		z M42.2,49.204c-0.047-0.006-0.096-0.01-0.145-0.01s-0.097,0.004-0.145,0.01c0.006-0.048,0.01-0.096,0.01-0.145
		s-0.004-0.098-0.01-0.146c0.048,0.007,0.096,0.011,0.145,0.011s0.098-0.004,0.145-0.011c-0.006,0.048-0.009,0.097-0.009,0.146
		S42.194,49.156,42.2,49.204z M44.626,46.354c0-0.049-0.004-0.097-0.01-0.145c0.048,0.006,0.096,0.01,0.145,0.01
		s0.097-0.004,0.145-0.01c-0.005,0.048-0.009,0.096-0.009,0.145c0,0.05,0.004,0.097,0.009,0.145c-0.048-0.006-0.096-0.01-0.145-0.01
		s-0.097,0.004-0.145,0.01C44.622,46.451,44.626,46.404,44.626,46.354z M50.306,40.944c0,0.05,0.004,0.098,0.01,0.145
		c-0.048-0.005-0.096-0.009-0.145-0.009s-0.097,0.004-0.145,0.009c0.006-0.047,0.009-0.095,0.009-0.145
		c0-0.049-0.003-0.097-0.009-0.145c0.048,0.006,0.096,0.009,0.145,0.009s0.097-0.003,0.145-0.009
		C50.31,40.848,50.306,40.896,50.306,40.944z M50.315,43.794c-0.048-0.005-0.096-0.01-0.145-0.01s-0.097,0.005-0.145,0.01
		c0.006-0.047,0.009-0.096,0.009-0.145s-0.003-0.097-0.009-0.145c0.048,0.006,0.096,0.01,0.145,0.01s0.097-0.004,0.145-0.01
		c-0.006,0.048-0.01,0.096-0.01,0.145S50.31,43.747,50.315,43.794z M51.378,44.857c0.048,0.006,0.096,0.01,0.146,0.01
		c0.049,0,0.097-0.004,0.144-0.01c-0.005,0.047-0.009,0.096-0.009,0.145s0.004,0.097,0.009,0.145
		c-0.047-0.006-0.095-0.009-0.144-0.009c-0.05,0-0.098,0.003-0.146,0.009c0.007-0.048,0.01-0.096,0.01-0.145
		S51.385,44.904,51.378,44.857z M53.011,43.649c0,0.049,0.004,0.098,0.01,0.145c-0.048-0.005-0.096-0.01-0.146-0.01
		c-0.048,0-0.097,0.005-0.144,0.01c0.005-0.047,0.009-0.096,0.009-0.145s-0.004-0.097-0.009-0.145
		c0.047,0.006,0.096,0.01,0.144,0.01c0.05,0,0.098-0.004,0.146-0.01C53.015,43.553,53.011,43.601,53.011,43.649z M51.667,42.441
		c-0.047-0.006-0.095-0.009-0.144-0.009c-0.05,0-0.098,0.003-0.146,0.009c0.007-0.047,0.01-0.096,0.01-0.145
		s-0.003-0.097-0.01-0.145c0.048,0.006,0.096,0.01,0.146,0.01c0.049,0,0.097-0.004,0.144-0.01c-0.005,0.048-0.009,0.096-0.009,0.145
		S51.662,42.395,51.667,42.441z M47.321,43.505c0.048,0.006,0.096,0.01,0.145,0.01s0.097-0.004,0.145-0.01
		c-0.006,0.048-0.01,0.096-0.01,0.145s0.004,0.098,0.01,0.145c-0.048-0.005-0.096-0.01-0.145-0.01s-0.097,0.005-0.145,0.01
		c0.006-0.047,0.01-0.096,0.01-0.145S47.327,43.553,47.321,43.505z M44.896,43.649c0,0.049,0.004,0.098,0.009,0.145
		c-0.048-0.005-0.096-0.01-0.145-0.01s-0.097,0.005-0.145,0.01c0.006-0.047,0.01-0.096,0.01-0.145s-0.004-0.097-0.01-0.145
		c0.048,0.006,0.096,0.01,0.145,0.01s0.097-0.004,0.145-0.01C44.9,43.553,44.896,43.601,44.896,43.649z M43.553,44.857
		c-0.005,0.047-0.009,0.096-0.009,0.145s0.004,0.097,0.009,0.145c-0.007-0.001-0.014-0.002-0.021-0.003
		c-0.04-0.004-0.082-0.006-0.124-0.006c-0.049,0-0.097,0.003-0.145,0.009c0.006-0.048,0.009-0.096,0.009-0.145
		s-0.003-0.098-0.009-0.145c0.048,0.006,0.096,0.01,0.145,0.01c0.042,0,0.084-0.003,0.124-0.007
		C43.539,44.859,43.546,44.858,43.553,44.857z M40.559,44.857c0.048,0.006,0.096,0.01,0.145,0.01s0.097-0.004,0.145-0.01
		c-0.005,0.047-0.009,0.096-0.009,0.145s0.004,0.097,0.009,0.145c-0.048-0.006-0.096-0.009-0.145-0.009s-0.097,0.003-0.145,0.009
		c0.006-0.048,0.01-0.096,0.01-0.145S40.564,44.904,40.559,44.857z M40.703,47.572c0.049,0,0.097-0.005,0.145-0.01
		c-0.005,0.048-0.009,0.096-0.009,0.145c0,0.05,0.004,0.097,0.009,0.145c-0.048-0.006-0.096-0.009-0.145-0.009
		s-0.097,0.003-0.145,0.009c0.006-0.048,0.01-0.095,0.01-0.145c0-0.049-0.004-0.097-0.01-0.145
		C40.606,47.567,40.654,47.572,40.703,47.572z M39.486,49.06c0,0.049,0.004,0.097,0.009,0.145c-0.047-0.006-0.096-0.01-0.145-0.01
		s-0.097,0.004-0.144,0.01c0.005-0.048,0.009-0.096,0.009-0.145s-0.004-0.098-0.009-0.146c0.047,0.007,0.095,0.011,0.144,0.011
		s0.098-0.004,0.145-0.011C39.49,48.962,39.486,49.011,39.486,49.06z M39.207,54.614c0.005-0.048,0.009-0.096,0.009-0.146
		c0-0.048-0.004-0.097-0.009-0.145c0.047,0.007,0.095,0.011,0.144,0.011s0.098-0.004,0.145-0.011
		c-0.005,0.048-0.009,0.097-0.009,0.145c0,0.05,0.004,0.098,0.009,0.146c-0.047-0.006-0.096-0.01-0.145-0.01
		S39.254,54.608,39.207,54.614z M40.559,55.967c0.006-0.048,0.01-0.096,0.01-0.146c0-0.049-0.004-0.097-0.01-0.144
		c0.048,0.005,0.096,0.009,0.145,0.009s0.097-0.004,0.145-0.009c-0.005,0.047-0.009,0.095-0.009,0.144
		c0,0.05,0.004,0.098,0.009,0.146c-0.048-0.006-0.096-0.01-0.145-0.01S40.606,55.961,40.559,55.967z M42.2,60.023
		c-0.047-0.005-0.096-0.009-0.145-0.009s-0.097,0.004-0.145,0.009c0.006-0.047,0.01-0.095,0.01-0.145
		c0-0.049-0.004-0.097-0.01-0.145c0.048,0.006,0.096,0.01,0.145,0.01s0.098-0.004,0.145-0.01c-0.006,0.048-0.009,0.096-0.009,0.145
		C42.191,59.929,42.194,59.977,42.2,60.023z M44.905,60.023c-0.048-0.005-0.096-0.009-0.145-0.009s-0.097,0.004-0.145,0.009
		c0.006-0.047,0.01-0.095,0.01-0.145c0-0.049-0.004-0.097-0.01-0.145c0.048,0.006,0.096,0.01,0.145,0.01s0.097-0.004,0.145-0.01
		c-0.005,0.048-0.009,0.096-0.009,0.145C44.896,59.929,44.9,59.977,44.905,60.023z M42.261,52.693c0-3.806,2.775-6.963,6.414-7.559
		c0.005-0.044,0.008-0.088,0.008-0.133c0-0.049-0.003-0.098-0.009-0.145c0.047,0.006,0.096,0.01,0.145,0.01
		c0.042,0,0.083-0.003,0.124-0.007c0.007-0.001,0.014-0.002,0.021-0.003c-0.006,0.047-0.01,0.096-0.01,0.145
		c0,0.031,0.003,0.063,0.005,0.093c0.316-0.04,0.639-0.063,0.966-0.063c4.231,0,7.663,3.431,7.663,7.661
		c0,1.062-0.217,2.072-0.606,2.99c0.033-0.001,0.065-0.003,0.097-0.006c-0.005,0.047-0.009,0.095-0.009,0.144
		c0,0.05,0.004,0.098,0.009,0.146c-0.047-0.006-0.096-0.01-0.145-0.01c-0.025,0-0.051,0.002-0.076,0.004
		c-0.799,1.69-2.195,3.042-3.918,3.78c0.027-0.002,0.055-0.004,0.082-0.007c-0.006,0.048-0.01,0.096-0.01,0.145
		c0,0.05,0.004,0.098,0.01,0.145c-0.048-0.005-0.096-0.009-0.146-0.009c-0.048,0-0.097,0.004-0.144,0.009
		c0.005-0.047,0.009-0.095,0.009-0.145c0-0.019-0.002-0.038-0.003-0.057c-0.871,0.344-1.82,0.536-2.813,0.536
		c-0.808,0-1.586-0.126-2.316-0.357c0.001,0.008,0.002,0.016,0.003,0.022c-0.048-0.005-0.096-0.009-0.145-0.009
		s-0.097,0.004-0.145,0.009c0.004-0.038,0.007-0.077,0.008-0.117C44.374,58.844,42.261,56.016,42.261,52.693z M47.321,62.439
		c0.048,0.006,0.096,0.01,0.145,0.01s0.097-0.004,0.145-0.01c-0.006,0.048-0.01,0.096-0.01,0.145s0.004,0.098,0.01,0.145
		c-0.048-0.005-0.096-0.01-0.145-0.01s-0.097,0.005-0.145,0.01c0.006-0.047,0.01-0.096,0.01-0.145S47.327,62.487,47.321,62.439z
		 M48.674,64.081c0.006-0.048,0.009-0.096,0.009-0.144c0-0.05-0.003-0.098-0.009-0.146c0.047,0.006,0.096,0.009,0.145,0.009
		c0.042,0,0.083-0.001,0.124-0.006c0.007-0.001,0.014-0.002,0.021-0.003c-0.006,0.048-0.01,0.096-0.01,0.146
		c0,0.048,0.004,0.096,0.01,0.144c-0.007,0-0.014-0.002-0.021-0.003c-0.041-0.004-0.082-0.006-0.124-0.006
		C48.77,64.072,48.721,64.076,48.674,64.081z M51.667,64.081c-0.047-0.005-0.095-0.009-0.144-0.009c-0.05,0-0.098,0.004-0.146,0.009
		c0.007-0.048,0.01-0.096,0.01-0.144c0-0.05-0.003-0.098-0.01-0.146c0.048,0.006,0.096,0.009,0.146,0.009
		c0.049,0,0.097-0.003,0.144-0.009c-0.005,0.048-0.009,0.096-0.009,0.146C51.658,63.985,51.662,64.033,51.667,64.081z
		 M52.731,62.729c0.005-0.047,0.009-0.096,0.009-0.145s-0.004-0.097-0.009-0.145c0.047,0.006,0.096,0.01,0.144,0.01
		c0.05,0,0.098-0.004,0.146-0.01c-0.006,0.048-0.01,0.096-0.01,0.145s0.004,0.098,0.01,0.145c-0.048-0.005-0.096-0.01-0.146-0.01
		C52.827,62.719,52.778,62.724,52.731,62.729z M54.229,61.367c-0.049,0-0.098,0.004-0.145,0.009
		c0.005-0.047,0.009-0.095,0.009-0.144c0-0.05-0.004-0.098-0.009-0.146c0.047,0.006,0.096,0.01,0.145,0.01
		c0.041,0,0.083-0.002,0.123-0.007c0.008,0,0.015-0.002,0.021-0.003c-0.005,0.048-0.009,0.096-0.009,0.146
		c0,0.049,0.004,0.097,0.009,0.144c-0.006,0-0.013-0.002-0.021-0.003C54.312,61.37,54.27,61.367,54.229,61.367z M56.788,61.376
		c0.006-0.047,0.01-0.095,0.01-0.144c0-0.05-0.004-0.098-0.01-0.146c0.048,0.006,0.096,0.01,0.145,0.01s0.098-0.004,0.145-0.01
		c-0.005,0.048-0.009,0.096-0.009,0.146c0,0.049,0.004,0.097,0.009,0.144c-0.047-0.005-0.096-0.009-0.145-0.009
		S56.836,61.371,56.788,61.376z M59.782,64.081c-0.006,0-0.013-0.002-0.02-0.003c-0.041-0.004-0.082-0.006-0.125-0.006
		c-0.049,0-0.097,0.004-0.145,0.009c0.006-0.048,0.011-0.096,0.011-0.144c0-0.05-0.005-0.098-0.011-0.146
		c0.048,0.006,0.096,0.009,0.145,0.009c0.043,0,0.084-0.001,0.125-0.006c0.007-0.001,0.014-0.002,0.02-0.003
		c-0.005,0.048-0.009,0.096-0.009,0.146C59.773,63.985,59.777,64.033,59.782,64.081z M60.99,62.719c-0.049,0-0.097,0.005-0.144,0.01
		c0.004-0.047,0.009-0.096,0.009-0.145s-0.005-0.097-0.009-0.145c0.047,0.006,0.095,0.01,0.144,0.01s0.097-0.004,0.145-0.01
		c-0.005,0.048-0.009,0.096-0.009,0.145s0.004,0.098,0.009,0.145C61.087,62.724,61.039,62.719,60.99,62.719z M59.782,55.967
		c-0.006-0.001-0.013-0.003-0.02-0.004c-0.041-0.004-0.082-0.006-0.125-0.006c-0.049,0-0.097,0.004-0.145,0.01
		c0.006-0.048,0.011-0.096,0.011-0.146c0-0.049-0.005-0.097-0.011-0.144c0.048,0.005,0.096,0.009,0.145,0.009
		c0.043,0,0.084-0.002,0.125-0.006c0.007-0.001,0.014-0.003,0.02-0.003c-0.005,0.047-0.009,0.095-0.009,0.144
		C59.773,55.871,59.777,55.919,59.782,55.967z M60.99,54.604c-0.049,0-0.097,0.004-0.144,0.01c0.004-0.048,0.009-0.096,0.009-0.146
		c0-0.048-0.005-0.097-0.009-0.145c0.047,0.007,0.095,0.011,0.144,0.011s0.097-0.004,0.145-0.011
		c-0.005,0.048-0.009,0.097-0.009,0.145c0,0.05,0.004,0.098,0.009,0.146C61.087,54.608,61.039,54.604,60.99,54.604z M63.695,54.604
		c-0.049,0-0.097,0.004-0.145,0.01c0.006-0.048,0.01-0.096,0.01-0.146c0-0.048-0.004-0.097-0.01-0.145
		c0.048,0.007,0.096,0.011,0.145,0.011s0.097-0.004,0.145-0.011c-0.005,0.048-0.01,0.097-0.01,0.145c0,0.05,0.005,0.098,0.01,0.146
		C63.792,54.608,63.744,54.604,63.695,54.604z M65.173,52.976c0.006-0.001,0.013-0.002,0.02-0.003
		c-0.006,0.047-0.009,0.096-0.009,0.144c0,0.05,0.003,0.098,0.009,0.146c-0.007-0.001-0.014-0.003-0.02-0.003
		c-0.041-0.005-0.083-0.006-0.125-0.006c-0.049,0-0.098,0.003-0.145,0.009c0.006-0.048,0.01-0.096,0.01-0.146
		c0-0.048-0.004-0.097-0.01-0.144c0.047,0.005,0.096,0.009,0.145,0.009C65.09,52.981,65.132,52.979,65.173,52.976z M62.487,50.268
		c-0.005,0.047-0.009,0.096-0.009,0.145s0.004,0.097,0.009,0.145c-0.048-0.006-0.096-0.009-0.145-0.009s-0.098,0.003-0.145,0.009
		c0.006-0.048,0.01-0.096,0.01-0.145s-0.004-0.098-0.01-0.145c0.047,0.005,0.096,0.009,0.145,0.009S62.439,50.272,62.487,50.268z
		 M59.763,47.565c0.007-0.001,0.014-0.002,0.02-0.003c-0.005,0.048-0.009,0.096-0.009,0.145c0,0.05,0.004,0.097,0.009,0.145
		c-0.006,0-0.013-0.003-0.02-0.004c-0.041-0.003-0.082-0.005-0.125-0.005c-0.049,0-0.097,0.003-0.145,0.009
		c0.006-0.048,0.011-0.095,0.011-0.145c0-0.049-0.005-0.097-0.011-0.145c0.048,0.005,0.096,0.01,0.145,0.01
		C59.681,47.572,59.722,47.569,59.763,47.565z M59.782,45.146c-0.006-0.001-0.013-0.002-0.02-0.003
		c-0.041-0.004-0.082-0.006-0.125-0.006c-0.049,0-0.097,0.003-0.145,0.009c0.006-0.048,0.011-0.096,0.011-0.145
		s-0.005-0.098-0.011-0.145c0.048,0.006,0.096,0.01,0.145,0.01c0.043,0,0.084-0.003,0.125-0.007c0.007-0.001,0.014-0.002,0.02-0.003
		c-0.005,0.047-0.009,0.096-0.009,0.145S59.777,45.099,59.782,45.146z M61.135,43.794c-0.048-0.005-0.096-0.01-0.145-0.01
		s-0.097,0.005-0.144,0.01c0.004-0.047,0.009-0.096,0.009-0.145s-0.005-0.097-0.009-0.145c0.047,0.006,0.095,0.01,0.144,0.01
		s0.097-0.004,0.145-0.01c-0.005,0.048-0.009,0.096-0.009,0.145S61.13,43.747,61.135,43.794z M59.763,42.155
		c0.007-0.001,0.014-0.002,0.02-0.003c-0.005,0.048-0.009,0.096-0.009,0.145s0.004,0.098,0.009,0.145
		c-0.006,0-0.013-0.002-0.02-0.003c-0.041-0.004-0.082-0.006-0.125-0.006c-0.049,0-0.097,0.003-0.145,0.009
		c0.006-0.047,0.011-0.096,0.011-0.145s-0.005-0.097-0.011-0.145c0.048,0.006,0.096,0.01,0.145,0.01
		C59.681,42.162,59.722,42.16,59.763,42.155z M56.788,42.152c0.048,0.006,0.096,0.01,0.145,0.01s0.098-0.004,0.145-0.01
		c-0.005,0.048-0.009,0.096-0.009,0.145s0.004,0.098,0.009,0.145c-0.047-0.006-0.096-0.009-0.145-0.009s-0.097,0.003-0.145,0.009
		c0.006-0.047,0.01-0.096,0.01-0.145S56.794,42.2,56.788,42.152z M55.726,43.505c-0.006,0.048-0.01,0.096-0.01,0.145
		s0.004,0.098,0.01,0.145c-0.048-0.005-0.096-0.01-0.146-0.01c-0.049,0-0.097,0.005-0.145,0.01c0.006-0.047,0.01-0.096,0.01-0.145
		s-0.004-0.097-0.01-0.145c0.048,0.006,0.096,0.01,0.145,0.01C55.63,43.515,55.678,43.511,55.726,43.505z M54.229,42.162
		c0.041,0,0.083-0.002,0.123-0.007c0.008-0.001,0.015-0.002,0.021-0.003c-0.005,0.048-0.009,0.096-0.009,0.145
		s0.004,0.098,0.009,0.145c-0.006,0-0.013-0.002-0.021-0.003c-0.04-0.004-0.082-0.006-0.123-0.006c-0.049,0-0.098,0.003-0.145,0.009
		c0.005-0.047,0.009-0.096,0.009-0.145s-0.004-0.097-0.009-0.145C54.131,42.158,54.18,42.162,54.229,42.162z M51.658,39.593
		c0,0.049,0.004,0.097,0.009,0.145c-0.047-0.007-0.095-0.009-0.144-0.009c-0.05,0-0.098,0.002-0.146,0.009
		c0.007-0.048,0.01-0.096,0.01-0.145c0-0.05-0.003-0.098-0.01-0.145c0.048,0.005,0.096,0.009,0.146,0.009
		c0.049,0,0.097-0.004,0.144-0.009C51.662,39.495,51.658,39.543,51.658,39.593z M50.315,38.095c-0.006,0.048-0.01,0.097-0.01,0.145
		c0,0.05,0.004,0.098,0.01,0.145c-0.048-0.005-0.096-0.009-0.145-0.009s-0.097,0.004-0.145,0.009
		c0.006-0.047,0.009-0.095,0.009-0.145c0-0.048-0.003-0.097-0.009-0.145c0.048,0.006,0.096,0.01,0.145,0.01
		S50.268,38.101,50.315,38.095z M48.674,39.448c0.047,0.005,0.096,0.009,0.145,0.009c0.042,0,0.083-0.002,0.124-0.007
		c0.007,0,0.014-0.002,0.021-0.002c-0.006,0.047-0.01,0.095-0.01,0.145c0,0.049,0.004,0.097,0.01,0.145
		c-0.007-0.001-0.014-0.003-0.021-0.004c-0.041-0.004-0.082-0.005-0.124-0.005c-0.049,0-0.098,0.002-0.145,0.009
		c0.006-0.048,0.009-0.096,0.009-0.145C48.683,39.543,48.68,39.495,48.674,39.448z M47.321,40.8
		c0.048,0.006,0.096,0.009,0.145,0.009s0.097-0.003,0.145-0.009c-0.006,0.048-0.01,0.096-0.01,0.145c0,0.05,0.004,0.098,0.01,0.145
		c-0.048-0.005-0.096-0.009-0.145-0.009s-0.097,0.004-0.145,0.009c0.006-0.047,0.01-0.095,0.01-0.145
		C47.331,40.896,47.327,40.848,47.321,40.8z M46.113,42.162c0.049,0,0.097-0.004,0.145-0.01c-0.005,0.048-0.01,0.096-0.01,0.145
		s0.005,0.098,0.01,0.145c-0.048-0.006-0.096-0.009-0.145-0.009s-0.098,0.003-0.145,0.009c0.006-0.047,0.009-0.096,0.009-0.145
		s-0.003-0.097-0.009-0.145C46.016,42.158,46.064,42.162,46.113,42.162z M40.848,42.152c-0.005,0.048-0.009,0.096-0.009,0.145
		s0.004,0.098,0.009,0.145c-0.048-0.006-0.096-0.009-0.145-0.009s-0.097,0.003-0.145,0.009c0.006-0.047,0.01-0.096,0.01-0.145
		s-0.004-0.097-0.01-0.145c0.048,0.006,0.096,0.01,0.145,0.01S40.8,42.158,40.848,42.152z M37.998,50.276
		c0.042,0,0.084-0.002,0.125-0.007c0.006,0,0.013-0.001,0.02-0.002c-0.005,0.047-0.009,0.096-0.009,0.145s0.004,0.097,0.009,0.145
		c-0.007,0-0.014-0.003-0.02-0.003c-0.041-0.004-0.083-0.006-0.125-0.006c-0.049,0-0.097,0.003-0.145,0.009
		c0.006-0.048,0.01-0.096,0.01-0.145s-0.004-0.098-0.01-0.145C37.901,50.272,37.949,50.276,37.998,50.276z M35.158,53.116
		c0-0.048-0.004-0.097-0.009-0.144c0.047,0.005,0.095,0.009,0.144,0.009s0.098-0.004,0.145-0.009
		c-0.005,0.047-0.009,0.096-0.009,0.144c0,0.05,0.004,0.098,0.009,0.146c-0.047-0.006-0.096-0.009-0.145-0.009
		s-0.097,0.003-0.144,0.009C35.154,53.214,35.158,53.166,35.158,53.116z M36.502,54.614c0.005-0.048,0.009-0.096,0.009-0.146
		c0-0.048-0.004-0.097-0.009-0.145c0.047,0.007,0.095,0.011,0.144,0.011c0.05,0,0.098-0.004,0.146-0.011
		c-0.006,0.048-0.01,0.097-0.01,0.145c0,0.05,0.004,0.098,0.01,0.146c-0.048-0.006-0.096-0.01-0.146-0.01
		C36.597,54.604,36.549,54.608,36.502,54.614z M39.207,57.319c0.005-0.047,0.009-0.096,0.009-0.145s-0.004-0.098-0.009-0.146
		c0.047,0.006,0.095,0.011,0.144,0.011s0.098-0.005,0.145-0.011c-0.005,0.048-0.009,0.097-0.009,0.146s0.004,0.098,0.009,0.145
		c-0.047-0.006-0.096-0.01-0.145-0.01S39.254,57.313,39.207,57.319z M40.559,58.383c0.048,0.005,0.096,0.009,0.145,0.009
		s0.097-0.004,0.145-0.009c-0.005,0.047-0.009,0.096-0.009,0.145s0.004,0.097,0.009,0.145c-0.048-0.006-0.096-0.01-0.145-0.01
		s-0.097,0.004-0.145,0.01c0.006-0.048,0.01-0.096,0.01-0.145S40.564,58.43,40.559,58.383z M39.495,59.734
		c-0.005,0.048-0.009,0.096-0.009,0.145c0,0.05,0.004,0.098,0.009,0.145c-0.047-0.005-0.096-0.009-0.145-0.009
		s-0.097,0.004-0.144,0.009c0.005-0.047,0.009-0.095,0.009-0.145c0-0.049-0.004-0.097-0.009-0.145
		c0.047,0.006,0.095,0.01,0.144,0.01S39.448,59.74,39.495,59.734z M40.848,64.081c-0.048-0.005-0.096-0.009-0.145-0.009
		s-0.097,0.004-0.145,0.009c0.006-0.048,0.01-0.096,0.01-0.144c0-0.05-0.004-0.098-0.01-0.146c0.048,0.006,0.096,0.009,0.145,0.009
		s0.097-0.003,0.145-0.009c-0.005,0.048-0.009,0.096-0.009,0.146C40.839,63.985,40.843,64.033,40.848,64.081z M42.056,62.719
		c-0.049,0-0.097,0.005-0.145,0.01c0.006-0.047,0.01-0.096,0.01-0.145s-0.004-0.097-0.01-0.145c0.048,0.006,0.096,0.01,0.145,0.01
		s0.098-0.004,0.145-0.01c-0.006,0.048-0.009,0.096-0.009,0.145s0.003,0.098,0.009,0.145C42.153,62.724,42.104,62.719,42.056,62.719
		z M43.408,61.367c-0.049,0-0.097,0.004-0.145,0.009c0.006-0.047,0.009-0.095,0.009-0.144c0-0.05-0.003-0.098-0.009-0.146
		c0.048,0.006,0.096,0.01,0.145,0.01c0.042,0,0.084-0.002,0.124-0.007c0.007,0,0.014-0.002,0.021-0.003
		c-0.005,0.048-0.009,0.096-0.009,0.146c0,0.049,0.004,0.097,0.009,0.144c-0.007,0-0.014-0.002-0.021-0.003
		C43.492,61.37,43.45,61.367,43.408,61.367z M44.761,62.719c-0.049,0-0.097,0.005-0.145,0.01c0.006-0.047,0.01-0.096,0.01-0.145
		s-0.004-0.097-0.01-0.145c0.048,0.006,0.096,0.01,0.145,0.01s0.097-0.004,0.145-0.01c-0.005,0.048-0.009,0.096-0.009,0.145
		s0.004,0.098,0.009,0.145C44.857,62.724,44.81,62.719,44.761,62.719z M45.969,61.376c0.006-0.047,0.009-0.095,0.009-0.144
		c0-0.05-0.003-0.098-0.009-0.146c0.047,0.006,0.096,0.01,0.145,0.01s0.097-0.004,0.145-0.01c-0.005,0.048-0.01,0.096-0.01,0.146
		c0,0.049,0.005,0.097,0.01,0.144c-0.048-0.005-0.096-0.009-0.145-0.009S46.016,61.371,45.969,61.376z M48.818,66.777
		c-0.049,0-0.098,0.004-0.145,0.009c0.006-0.048,0.009-0.096,0.009-0.145s-0.003-0.097-0.009-0.145
		c0.047,0.006,0.096,0.01,0.145,0.01c0.042,0,0.083-0.003,0.124-0.007c0.007,0,0.014-0.002,0.021-0.003
		c-0.006,0.048-0.01,0.096-0.01,0.145s0.004,0.097,0.01,0.145c-0.007-0.001-0.014-0.002-0.021-0.003
		C48.901,66.779,48.86,66.777,48.818,66.777z M51.378,66.786c0.007-0.048,0.01-0.096,0.01-0.145s-0.003-0.097-0.01-0.145
		c0.048,0.006,0.096,0.01,0.146,0.01c0.049,0,0.097-0.004,0.144-0.01c-0.005,0.048-0.009,0.096-0.009,0.145s0.004,0.097,0.009,0.145
		c-0.047-0.005-0.095-0.009-0.144-0.009C51.474,66.777,51.426,66.781,51.378,66.786z"/>
	<path fill="#E8E8E8" d="M57.069,19.172c-0.584-0.585-1.103-1.208-1.591-1.848c-0.1,0.49-0.152,0.997-0.152,1.517v18.004
		c0,4.202,3.406,7.608,7.608,7.608h18.004c0.442,0,0.873-0.046,1.295-0.118L57.069,19.172z"/>
</g>
</svg>
